<mxfile host="app.diagrams.net" modified="2024-06-23T04:56:11.945Z" agent="Mozilla/5.0 (Windows NT 10.0; Win64; x64) AppleWebKit/537.36 (KHTML, like Gecko) Chrome/126.0.0.0 Safari/537.36" etag="IudZru_OxcLEvRLoj98_" version="24.6.2" type="github">
  <diagram name="第 1 页" id="-GDD82a25kowlB7FlU-Z">
    <mxGraphModel dx="1235" dy="609" grid="1" gridSize="10" guides="1" tooltips="1" connect="1" arrows="1" fold="1" page="1" pageScale="1" pageWidth="827" pageHeight="1169" math="0" shadow="0">
      <root>
        <mxCell id="0" />
        <mxCell id="1" parent="0" />
        <mxCell id="_K4jWUiLJIh_TXcVqfMS-27" value="" style="edgeStyle=orthogonalEdgeStyle;rounded=0;orthogonalLoop=1;jettySize=auto;html=1;" edge="1" parent="1" source="_K4jWUiLJIh_TXcVqfMS-3" target="_K4jWUiLJIh_TXcVqfMS-21">
          <mxGeometry relative="1" as="geometry" />
        </mxCell>
        <mxCell id="_K4jWUiLJIh_TXcVqfMS-3" value="query_model()" style="rounded=0;whiteSpace=wrap;html=1;" vertex="1" parent="1">
          <mxGeometry x="390" y="600" width="120" height="60" as="geometry" />
        </mxCell>
        <mxCell id="_K4jWUiLJIh_TXcVqfMS-10" value="" style="group" vertex="1" connectable="0" parent="1">
          <mxGeometry x="260" y="690" width="200" height="190" as="geometry" />
        </mxCell>
        <mxCell id="_K4jWUiLJIh_TXcVqfMS-7" value="Model&lt;div&gt;(Huggingface Server)&lt;/div&gt;" style="swimlane;whiteSpace=wrap;html=1;startSize=40;" vertex="1" parent="_K4jWUiLJIh_TXcVqfMS-10">
          <mxGeometry x="-10" y="10" width="170" height="180" as="geometry" />
        </mxCell>
        <mxCell id="_K4jWUiLJIh_TXcVqfMS-9" value="y2k-lora" style="whiteSpace=wrap;html=1;" vertex="1" parent="_K4jWUiLJIh_TXcVqfMS-7">
          <mxGeometry x="25" y="120" width="120" height="36" as="geometry" />
        </mxCell>
        <mxCell id="_K4jWUiLJIh_TXcVqfMS-8" value="3d-icon-lora" style="whiteSpace=wrap;html=1;" vertex="1" parent="_K4jWUiLJIh_TXcVqfMS-7">
          <mxGeometry x="25" y="64" width="120" height="36" as="geometry" />
        </mxCell>
        <mxCell id="_K4jWUiLJIh_TXcVqfMS-14" style="edgeStyle=orthogonalEdgeStyle;rounded=0;orthogonalLoop=1;jettySize=auto;html=1;exitX=1;exitY=0.5;exitDx=0;exitDy=0;" edge="1" parent="1" source="_K4jWUiLJIh_TXcVqfMS-12" target="_K4jWUiLJIh_TXcVqfMS-13">
          <mxGeometry relative="1" as="geometry" />
        </mxCell>
        <mxCell id="_K4jWUiLJIh_TXcVqfMS-12" value="user input:&lt;div&gt;prompt&lt;/div&gt;" style="shape=parallelogram;perimeter=parallelogramPerimeter;whiteSpace=wrap;html=1;fixedSize=1;" vertex="1" parent="1">
          <mxGeometry x="30" y="600" width="120" height="60" as="geometry" />
        </mxCell>
        <mxCell id="_K4jWUiLJIh_TXcVqfMS-15" style="edgeStyle=orthogonalEdgeStyle;rounded=0;orthogonalLoop=1;jettySize=auto;html=1;exitX=1;exitY=0.5;exitDx=0;exitDy=0;entryX=0;entryY=0.5;entryDx=0;entryDy=0;" edge="1" parent="1" source="_K4jWUiLJIh_TXcVqfMS-13" target="_K4jWUiLJIh_TXcVqfMS-3">
          <mxGeometry relative="1" as="geometry" />
        </mxCell>
        <mxCell id="_K4jWUiLJIh_TXcVqfMS-13" value="prompt + timestamp" style="shape=process;whiteSpace=wrap;html=1;backgroundOutline=1;" vertex="1" parent="1">
          <mxGeometry x="220" y="600" width="120" height="60" as="geometry" />
        </mxCell>
        <mxCell id="_K4jWUiLJIh_TXcVqfMS-23" style="edgeStyle=orthogonalEdgeStyle;rounded=0;orthogonalLoop=1;jettySize=auto;html=1;entryX=1;entryY=0.5;entryDx=0;entryDy=0;" edge="1" parent="1" source="_K4jWUiLJIh_TXcVqfMS-19" target="_K4jWUiLJIh_TXcVqfMS-7">
          <mxGeometry relative="1" as="geometry">
            <Array as="points">
              <mxPoint x="610" y="790" />
            </Array>
          </mxGeometry>
        </mxCell>
        <mxCell id="_K4jWUiLJIh_TXcVqfMS-19" value="query" style="swimlane;fontStyle=0;childLayout=stackLayout;horizontal=1;startSize=30;horizontalStack=0;resizeParent=1;resizeParentMax=0;resizeLast=0;collapsible=1;marginBottom=0;whiteSpace=wrap;html=1;" vertex="1" parent="1">
          <mxGeometry x="560" y="600" width="140" height="120" as="geometry" />
        </mxCell>
        <mxCell id="_K4jWUiLJIh_TXcVqfMS-20" value="prompt" style="text;strokeColor=none;fillColor=none;align=left;verticalAlign=middle;spacingLeft=4;spacingRight=4;overflow=hidden;points=[[0,0.5],[1,0.5]];portConstraint=eastwest;rotatable=0;whiteSpace=wrap;html=1;" vertex="1" parent="_K4jWUiLJIh_TXcVqfMS-19">
          <mxGeometry y="30" width="140" height="30" as="geometry" />
        </mxCell>
        <mxCell id="_K4jWUiLJIh_TXcVqfMS-21" value="enable timestamp" style="text;strokeColor=none;fillColor=none;align=left;verticalAlign=middle;spacingLeft=4;spacingRight=4;overflow=hidden;points=[[0,0.5],[1,0.5]];portConstraint=eastwest;rotatable=0;whiteSpace=wrap;html=1;" vertex="1" parent="_K4jWUiLJIh_TXcVqfMS-19">
          <mxGeometry y="60" width="140" height="30" as="geometry" />
        </mxCell>
        <mxCell id="_K4jWUiLJIh_TXcVqfMS-22" value="model name" style="text;strokeColor=none;fillColor=none;align=left;verticalAlign=middle;spacingLeft=4;spacingRight=4;overflow=hidden;points=[[0,0.5],[1,0.5]];portConstraint=eastwest;rotatable=0;whiteSpace=wrap;html=1;" vertex="1" parent="_K4jWUiLJIh_TXcVqfMS-19">
          <mxGeometry y="90" width="140" height="30" as="geometry" />
        </mxCell>
        <mxCell id="_K4jWUiLJIh_TXcVqfMS-28" value="output image" style="shape=parallelogram;perimeter=parallelogramPerimeter;whiteSpace=wrap;html=1;fixedSize=1;" vertex="1" parent="1">
          <mxGeometry x="30" y="760" width="120" height="60" as="geometry" />
        </mxCell>
        <mxCell id="_K4jWUiLJIh_TXcVqfMS-29" style="edgeStyle=orthogonalEdgeStyle;rounded=0;orthogonalLoop=1;jettySize=auto;html=1;exitX=0;exitY=0.5;exitDx=0;exitDy=0;entryX=1;entryY=0.5;entryDx=0;entryDy=0;" edge="1" parent="1" source="_K4jWUiLJIh_TXcVqfMS-7" target="_K4jWUiLJIh_TXcVqfMS-28">
          <mxGeometry relative="1" as="geometry" />
        </mxCell>
      </root>
    </mxGraphModel>
  </diagram>
</mxfile>
